<svg id="Layer_1" xmlns="http://www.w3.org/2000/svg" viewBox="0 0 205.2 115.2"><style>.st0{fill:#343e48}.st1{fill:#e12726}.st2{fill:#f58220}.st3{fill:#faa21b}.st4{fill:#f05f45}</style><path class="st0" d="M91.1 75.3l1.7-2.4c2.4 1.8 5.2 2.9 7.8 2.9 2.7 0 4.7-1.4 4.7-3.6v-.1c0-2.3-2.7-3.1-5.6-4-3.5-1-7.5-2.2-7.5-6.4v-.1c0-3.9 3.2-6.5 7.7-6.5 2.8 0 5.8 1 8.1 2.5l-1.5 2.5c-2.1-1.4-4.5-2.2-6.7-2.2-2.7 0-4.4 1.4-4.4 3.3v.1c0 2.1 2.8 3 5.8 3.9 3.5 1 7.3 2.4 7.3 6.5v.1c0 4.3-3.5 6.8-8 6.8-3.3 0-6.8-1.2-9.4-3.3zM110 55.6h3.6l5.9 18.1 6.1-18.2h2.8l6.1 18.2 5.9-18.1h3.5l-8 22.8H133l-6-17.9-6.1 17.8h-3L110 55.6zM156 58.6v-4.9c0-2.6.7-4.5 2-5.8 1.1-1.1 2.8-1.7 4.8-1.7 1.6 0 2.6.2 3.7.6v2.9c-1.2-.4-2.1-.6-3.3-.6-2.6 0-3.9 1.6-3.9 4.8v1.8h7.2v2.9h-7.1v19.6H156V58.6zM172.2 72.2V58.6H169v-3h3.1v-6.8h3.4v6.8h7.2v3h-7.2v13.2c0 2.8 1.5 3.8 3.8 3.8 1.1 0 2.1-.2 3.3-.8v2.9c-1.2.6-2.4 1-4.1 1-3.6-.1-6.3-1.9-6.3-6.5z"/><path class="st1" d="M56.9 77.4c0-.4-.2-.2-.6.1-4.6 3.3-5.6 4.1-10.8 4.8-1.2.1 2.2 1.2 5.3 1.9-.1 1.8-.8 4.3-2.6 6.9-.7 1 8.9-3.7 8.7-13.7z"/><path class="st2" d="M44.8 55.8c5.6 4.8 10.5 9.1 13.3 14.9C66.1 57.9 79 60.4 79 60.4c-6.7-5.7-19.6.7-34.2-4.6z"/><path class="st3" d="M70.8 48.4C45.6 41.2 31.2 31 23.5 23.3c.6 5.7 5.1 18.4 13.5 24.6 18.2 13.3 37.2-.3 46 13.5.6-3.4-.9-9.8-12.2-13z"/><path class="st4" d="M59.7 74.9c.1 1.7.6 5.8-1 9.5v.1c0 .2.2.3.5 0 3.1-3.6 10.7-17.8 16.7-21.9-6.7.3-16.3 10.1-16.2 12.3z"/><path class="st0" d="M147.5 55.6h3.4v22.6h-3.4V55.6zm1.7-7.3c-1.2 0-2.1 1-2.1 2.1 0 1.2 1 2.1 2.1 2.1 1.2 0 2.1-1 2.1-2.1 0-1.2-1-2.1-2.1-2.1z"/><g><path d="M92.6 85.4h1.2l3.8 5v-5h1.2v7.2h-1.1l-4-5.1v5.1h-1.2v-7.2zM105.5 85.4h1.2l3.2 7.2h-1.3l-.7-1.7h-3.4l-.7 1.7h-1.3l3-7.2zm1.8 4.3l-1.2-2.9-1.2 2.9h2.4zM111.7 85.4h1.4l2.2 5.5 2.2-5.5h1.4l-3 7.2h-1.1l-3.1-7.2zM122.6 85.4h1.3v7.2h-1.3v-7.2zM128.5 89c0-2 1.5-3.7 3.7-3.7 1.2 0 2 .3 2.8 1l-.8 1c-.6-.5-1.1-.8-2-.8-1.3 0-2.3 1.2-2.3 2.5 0 1.5 1 2.6 2.4 2.6.7 0 1.3-.2 1.7-.5v-1.3h-1.8v-1.1h3.1v3c-.7.6-1.7 1.1-3 1.1-2.4-.1-3.8-1.7-3.8-3.8zM142.2 85.4h1.2l3.2 7.2h-1.3l-.7-1.7H141l-.7 1.7H139l3.2-7.2zm1.8 4.3l-1.2-2.9-1.2 2.9h2.4zM151.1 86.6h-2.3v-1.2h5.8v1.2h-2.3v6H151v-6zM158.9 85.4h1.3v7.2h-1.3v-7.2zM164.5 89c0-2 1.6-3.7 3.8-3.7 2.2 0 3.7 1.7 3.7 3.7s-1.6 3.7-3.8 3.7c-2.1 0-3.7-1.7-3.7-3.7zm6.2 0c0-1.4-1-2.6-2.4-2.6s-2.4 1.1-2.4 2.5 1 2.5 2.4 2.5c1.4.2 2.4-1 2.4-2.4zM175.8 85.4h1.2l3.8 5v-5h1.2v7.2h-1l-4-5.1v5.1h-1.2v-7.2z"/></g></svg>