<?xml version="1.0" encoding="UTF-8" standalone="no"?>
<!-- Generator: Adobe Illustrator 21.1.0, SVG Export Plug-In . SVG Version: 6.00 Build 0)  -->

<svg
   xmlns:dc="http://purl.org/dc/elements/1.1/"
   xmlns:cc="http://creativecommons.org/ns#"
   xmlns:rdf="http://www.w3.org/1999/02/22-rdf-syntax-ns#"
   xmlns:svg="http://www.w3.org/2000/svg"
   xmlns="http://www.w3.org/2000/svg"
   xmlns:sodipodi="http://sodipodi.sourceforge.net/DTD/sodipodi-0.dtd"
   xmlns:inkscape="http://www.inkscape.org/namespaces/inkscape"
   version="1.1"
   id="Layer_1"
   x="0px"
   y="0px"
   viewBox="0 0 63.612031 71.931849"
   xml:space="preserve"
   inkscape:version="0.91 r13725"
   sodipodi:docname="SwiftNav_Logo_NoText.svg"
   width="63.61203"
   height="71.931847"><metadata
     id="metadata3393"><rdf:RDF><cc:Work
         rdf:about=""><dc:format>image/svg+xml</dc:format><dc:type
           rdf:resource="http://purl.org/dc/dcmitype/StillImage" /><dc:title></dc:title></cc:Work></rdf:RDF></metadata><defs
     id="defs3391" /><sodipodi:namedview
     pagecolor="#ffffff"
     bordercolor="#666666"
     borderopacity="1"
     objecttolerance="10"
     gridtolerance="10"
     guidetolerance="10"
     inkscape:pageopacity="0"
     inkscape:pageshadow="2"
     inkscape:window-width="1920"
     inkscape:window-height="1018"
     id="namedview3389"
     showgrid="false"
     inkscape:zoom="7.0312502"
     inkscape:cx="101.6"
     inkscape:cy="35.930373"
     inkscape:window-x="0"
     inkscape:window-y="34"
     inkscape:window-maximized="1"
     inkscape:current-layer="Layer_1"
     fit-margin-top="2"
     fit-margin-left="2"
     fit-margin-right="2"
     fit-margin-bottom="2" /><style
     type="text/css"
     id="style3337">
	.st0{fill:#343E48;}
	.st1{fill:#E12726;}
	.st2{fill:#F58220;}
	.st3{fill:#FAA21B;}
	.st4{fill:#F05F45;}
</style><g
     id="g3339"
     transform="translate(-21.5,-21.3)"><g
       id="g3341"><g
         id="g3351"><g
           id="g3353" /><g
           id="g3357" /><g
           id="g3464"><g
             id="g3470"><path
               style="fill:#e12726"
               class="st1"
               d="m 56.9,77.4 c 0,-0.4 -0.2,-0.2 -0.6,0.1 -4.6,3.3 -5.6,4.1 -10.8,4.8 -1.2,0.1 2.2,1.2 5.3,1.9 -0.1,1.8 -0.8,4.3 -2.6,6.9 -0.7,1 8.9,-3.7 8.7,-13.7 z"
               id="path3355"
               inkscape:connector-curvature="0" /><path
               style="fill:#f58220"
               class="st2"
               d="m 44.8,55.8 c 5.6,4.8 10.5,9.1 13.3,14.9 C 66.1,57.9 79,60.4 79,60.4 72.3,54.7 59.4,61.1 44.8,55.8 Z"
               id="path3359"
               inkscape:connector-curvature="0" /><path
               class="st3"
               d="M 70.8,48.4 C 45.6,41.2 31.2,31 23.5,23.3 24.1,29 28.6,41.7 37,47.9 55.2,61.2 74.2,47.6 83,61.4 83.6,58 82.1,51.6 70.8,48.4 Z"
               id="path3361"
               inkscape:connector-curvature="0"
               style="fill:#faa21b" /><path
               class="st4"
               d="m 59.7,74.9 c 0.1,1.7 0.6,5.8 -1,9.5 0,0 0,0.1 0,0.1 0,0.2 0.2,0.3 0.5,0 3.1,-3.6 10.7,-17.8 16.7,-21.9 -6.7,0.3 -16.3,10.1 -16.2,12.3 z"
               id="path3363"
               inkscape:connector-curvature="0"
               style="fill:#f05f45" /></g></g></g></g><g
       id="g3367" /></g></svg>